<svg width="88" height="68" viewBox="0 0 88 68" fill="none" xmlns="http://www.w3.org/2000/svg">
<g filter="url(#filter0_d_2218_8317)">
<path d="M10.2974 0.198356C8.1743 0.614878 6.42225 1.92395 5.53592 3.74871L5 4.85944V29.3549V53.8504L5.53592 54.9412C6.25735 56.3892 7.18491 57.242 8.81328 57.9957L10.1531 58.6106L17.7797 58.6701C25.7566 58.7494 26.8697 58.6701 28.4569 57.8767C29.7348 57.2619 30.7654 56.2106 31.4044 54.9016L32.0022 53.652L32.064 46.3926L32.1259 39.1332L26.2101 39.0142C22.9534 38.9349 20.2531 38.8952 20.2325 38.9349C20.1913 38.9746 20.1501 42.1679 20.1501 46.0158C20.1295 53.9694 20.1707 53.7512 18.6042 53.7512C16.9964 53.7512 17.0582 54.0884 17.0582 44.8852C17.0582 37.368 17.0788 36.7333 17.4292 36.4358C17.7384 36.1581 18.8103 36.0986 24.9528 35.9796L32.1259 35.8407L32.064 20.3501L32.0022 4.85944L31.425 3.74871C30.7036 2.32063 29.4256 1.17024 27.8591 0.575208C26.6636 0.119018 26.5193 0.0991865 18.9133 0.0595177C14.6672 0.0396834 10.7921 0.119019 10.2974 0.198356ZM19.8821 6.14867C20.0882 6.52552 20.1501 9.223 20.1501 17.7319C20.1501 30.2078 20.2325 29.5532 18.6454 29.5532C16.9552 29.5532 17.0582 30.3466 17.0582 17.5931C17.0582 4.7206 16.9552 5.49413 18.6866 5.59331C19.4493 5.63298 19.676 5.75198 19.8821 6.14867Z" fill="#F8F8F8"/>
</g>
<g filter="url(#filter1_d_2218_8317)">
<path d="M41.5849 0.278075C39.9977 0.615259 38.8847 1.23013 37.9159 2.28135C36.2463 4.10611 36.3288 3.13423 36.2669 20.4496L36.2051 35.8411L43.44 35.9403C49.9741 36.0395 50.7162 36.0791 51.0666 36.3965C51.4582 36.7337 51.4788 37.0708 51.4788 44.9253C51.4788 54.1482 51.5407 53.7516 49.8917 53.7516C48.3457 53.7516 48.387 53.9499 48.387 45.9566V38.8758H42.2857H36.2051L36.2669 46.3533C36.3288 53.5334 36.3494 53.8904 36.7822 54.7829C37.6892 56.6474 39.2351 57.8573 41.4818 58.4325C42.8216 58.7895 56.2609 58.8292 57.9099 58.492C60.6101 57.9366 62.3415 56.4292 63.1042 53.9499C63.3928 53.0375 63.434 51.3119 63.434 41.3154V29.752H56.3639H49.2733L48.8404 29.2958L48.387 28.8396V17.5141C48.387 4.76064 48.2839 5.55402 49.9741 5.55402C51.5613 5.55402 51.4788 4.99866 51.4788 16.5224V26.7768H57.4564H63.4546L63.3928 15.8084C63.3309 4.85981 63.3309 4.85982 62.8568 3.8681C61.9293 1.92433 60.1154 0.635095 57.7656 0.218573C56.0548 -0.0987774 43.069 -0.0392752 41.5849 0.278075Z" fill="#F8F8F8"/>
</g>
<path d="M66.8357 0.317264C66.5472 0.61478 66.5059 1.26931 66.5678 5.95022C66.6502 12.5352 66.4853 12.2179 69.4123 11.9997C70.4841 11.9402 73.4729 11.6824 76.0495 11.4443C79.904 11.0675 80.7903 10.9287 81.1407 10.6311C81.553 10.2741 81.5736 10.0559 81.5736 5.45437C81.5736 1.05114 81.5323 0.634614 81.2025 0.337098C80.8521 0.0395826 80.0482 -8.67101e-05 73.9882 -8.67101e-05C67.9694 -8.67101e-05 67.1449 0.0395828 66.8357 0.317264Z" fill="#0061B1"/>
<path d="M74.9972 12.9932C71.1221 13.37 67.8859 13.7072 67.8241 13.7469C67.6592 13.9056 72.936 16.2659 73.4307 16.2659C73.6986 16.2659 76.6256 15.9485 79.9442 15.5717C83.2834 15.175 86.5195 14.818 87.1379 14.7386C87.983 14.6395 88.1685 14.5799 87.8593 14.4609C87.6326 14.3618 86.4577 13.8857 85.2621 13.4097C84.046 12.9139 82.8505 12.4775 82.5825 12.418C82.3146 12.3783 78.8929 12.6362 74.9972 12.9932Z" fill="#0061B1"/>
<path d="M70.6112 18.3855L67.5605 18.4648V38.5768V58.7087H73.6412H79.7218V38.4777V18.2466L76.6918 18.2863C75.0016 18.3061 72.2808 18.3656 70.6112 18.3855Z" fill="#F8F8F8"/>
<defs>
<filter id="filter0_d_2218_8317" x="0.389968" y="0.0563965" width="36.3451" height="67.858" filterUnits="userSpaceOnUse" color-interpolation-filters="sRGB">
<feFlood flood-opacity="0" result="BackgroundImageFix"/>
<feColorMatrix in="SourceAlpha" type="matrix" values="0 0 0 0 0 0 0 0 0 0 0 0 0 0 0 0 0 0 127 0" result="hardAlpha"/>
<feOffset dy="4.61003"/>
<feGaussianBlur stdDeviation="2.30502"/>
<feComposite in2="hardAlpha" operator="out"/>
<feColorMatrix type="matrix" values="0 0 0 0 0.00392157 0 0 0 0 0.0784314 0 0 0 0 0.156863 0 0 0 0.15 0"/>
<feBlend mode="normal" in2="BackgroundImageFix" result="effect1_dropShadow_2218_8317"/>
<feBlend mode="normal" in="SourceGraphic" in2="effect1_dropShadow_2218_8317" result="shape"/>
</filter>
<filter id="filter1_d_2218_8317" x="31.595" y="0.00817871" width="36.4701" height="67.9358" filterUnits="userSpaceOnUse" color-interpolation-filters="sRGB">
<feFlood flood-opacity="0" result="BackgroundImageFix"/>
<feColorMatrix in="SourceAlpha" type="matrix" values="0 0 0 0 0 0 0 0 0 0 0 0 0 0 0 0 0 0 127 0" result="hardAlpha"/>
<feOffset dy="4.61003"/>
<feGaussianBlur stdDeviation="2.30502"/>
<feComposite in2="hardAlpha" operator="out"/>
<feColorMatrix type="matrix" values="0 0 0 0 0.00392157 0 0 0 0 0.0784314 0 0 0 0 0.156863 0 0 0 0.15 0"/>
<feBlend mode="normal" in2="BackgroundImageFix" result="effect1_dropShadow_2218_8317"/>
<feBlend mode="normal" in="SourceGraphic" in2="effect1_dropShadow_2218_8317" result="shape"/>
</filter>
</defs>
</svg>
