<svg width="61" height="61" viewBox="0 0 61 61" fill="none" xmlns="http://www.w3.org/2000/svg">
<circle cx="30.5" cy="30.5" r="30.5" fill="#F2F8FF"/>
<path d="M15.9029 20.9757C15.1403 21.1254 14.5109 21.5956 14.1925 22.2511L14 22.6501V31.4494V40.2487L14.1925 40.6406C14.4517 41.1607 14.7849 41.4671 15.3698 41.7378L15.8511 41.9587L18.5907 41.9801C21.4562 42.0086 21.8561 41.9801 22.4262 41.6951C22.8853 41.4742 23.2555 41.0966 23.485 40.6263L23.6998 40.1775L23.722 37.5697L23.7442 34.962L21.6191 34.9192C20.4492 34.8907 19.4793 34.8765 19.4719 34.8907C19.457 34.905 19.4422 36.0521 19.4422 37.4344C19.4348 40.2915 19.4496 40.2131 18.8869 40.2131C18.3094 40.2131 18.3316 40.3342 18.3316 37.0282C18.3316 34.3279 18.339 34.0999 18.4649 33.993C18.5759 33.8933 18.961 33.8719 21.1675 33.8291L23.7442 33.7793L23.722 28.2147L23.6998 22.6501L23.4925 22.2511C23.2333 21.7381 22.7742 21.3248 22.2115 21.1111C21.782 20.9472 21.7302 20.9401 18.998 20.9259C17.4727 20.9187 16.0806 20.9472 15.9029 20.9757ZM19.346 23.1132C19.42 23.2486 19.4422 24.2176 19.4422 27.2742C19.4422 31.7558 19.4719 31.5206 18.9017 31.5206C18.2946 31.5206 18.3316 31.8056 18.3316 27.2243C18.3316 22.6002 18.2946 22.8781 18.9165 22.9137C19.1905 22.928 19.2719 22.9707 19.346 23.1132Z" fill="#001228"/>
<path d="M27.1409 21.005C26.5708 21.1261 26.1709 21.347 25.8229 21.7246C25.2232 22.3801 25.2528 22.031 25.2306 28.2511L25.2084 33.78L27.8073 33.8156C30.1545 33.8513 30.4211 33.8655 30.547 33.9795C30.6876 34.1006 30.695 34.2218 30.695 37.0432C30.695 40.3563 30.7173 40.2138 30.1249 40.2138C29.5696 40.2138 29.5844 40.2851 29.5844 37.4137V34.8701H27.3927H25.2084L25.2306 37.5562C25.2528 40.1355 25.2602 40.2637 25.4157 40.5843C25.7415 41.2541 26.2968 41.6887 27.1039 41.8953C27.5852 42.0236 32.4129 42.0378 33.0052 41.9167C33.9752 41.7172 34.5972 41.1757 34.8711 40.2851C34.9748 39.9573 34.9896 39.3375 34.9896 35.7465V31.5927H32.4499H29.9028L29.7473 31.4288L29.5844 31.2649V27.1966C29.5844 22.6152 29.5474 22.9002 30.1545 22.9002C30.7247 22.9002 30.695 22.7007 30.695 26.8403V30.5239H32.8423H34.997L34.9748 26.5838C34.9526 22.6508 34.9526 22.6508 34.7823 22.2946C34.4491 21.5964 33.7975 21.1332 32.9534 20.9836C32.3388 20.8696 27.674 20.891 27.1409 21.005Z" fill="#001228"/>
<path d="M38.0039 26.8142L36.8572 26.844V34.4183V42H39.1429H41.4286V34.3809V26.7619L40.2896 26.7768C39.6543 26.7843 38.6315 26.8067 38.0039 26.8142Z" fill="#001228"/>
<g clip-path="url(#clip0_247_205)">
<path d="M39 24C39 23.0317 38.8134 22.1217 38.44 21.27C38.0784 20.4184 37.5825 19.6775 36.9525 19.0475C36.3225 18.4175 35.5817 17.9216 34.73 17.56C33.8783 17.1866 32.9683 17 32 17C32.9683 17 33.8783 16.8191 34.73 16.4575C35.5817 16.0841 36.3225 15.5825 36.9525 14.9525C37.5825 14.3225 38.0784 13.5817 38.44 12.73C38.8134 11.8783 39 10.9683 39 10C39 10.9683 39.1809 11.8783 39.5425 12.73C39.9159 13.5817 40.4175 14.3225 41.0475 14.9525C41.6775 15.5825 42.4184 16.0841 43.27 16.4575C44.1217 16.8191 45.0317 17 46 17C45.0317 17 44.1217 17.1866 43.27 17.56C42.4184 17.9216 41.6775 18.4175 41.0475 19.0475C40.4175 19.6775 39.9159 20.4184 39.5425 21.27C39.1809 22.1217 39 23.0317 39 24Z" fill="url(#paint0_linear_247_205)"/>
</g>
<g clip-path="url(#clip1_247_205)">
<path d="M43.5 26C43.5 25.6542 43.4333 25.3292 43.3 25.025C43.1708 24.7208 42.9937 24.4562 42.7687 24.2312C42.5437 24.0062 42.2792 23.8292 41.975 23.7C41.6708 23.5667 41.3458 23.5 41 23.5C41.3458 23.5 41.6708 23.4354 41.975 23.3063C42.2792 23.1729 42.5437 22.9937 42.7687 22.7687C42.9937 22.5437 43.1708 22.2792 43.3 21.975C43.4333 21.6708 43.5 21.3458 43.5 21C43.5 21.3458 43.5646 21.6708 43.6938 21.975C43.8271 22.2792 44.0062 22.5437 44.2312 22.7687C44.4562 22.9937 44.7208 23.1729 45.025 23.3063C45.3292 23.4354 45.6542 23.5 46 23.5C45.6542 23.5 45.3292 23.5667 45.025 23.7C44.7208 23.8292 44.4562 24.0062 44.2312 24.2312C44.0062 24.4562 43.8271 24.7208 43.6938 25.025C43.5646 25.3292 43.5 25.6542 43.5 26Z" fill="url(#paint1_linear_247_205)"/>
</g>
<defs>
<linearGradient id="paint0_linear_247_205" x1="19.2734" y1="10.9164" x2="47.5054" y2="20.4631" gradientUnits="userSpaceOnUse">
<stop offset="0.381" stop-color="#034694"/>
<stop offset="0.7509" stop-color="#0D87DF"/>
</linearGradient>
<linearGradient id="paint1_linear_247_205" x1="36.4548" y1="21.3273" x2="46.5376" y2="24.7368" gradientUnits="userSpaceOnUse">
<stop offset="0.381" stop-color="#18357F"/>
<stop offset="0.7509" stop-color="#1BA1E3"/>
</linearGradient>
<clipPath id="clip0_247_205">
<rect width="13.7143" height="13.7143" fill="white" transform="translate(32.2858 10)"/>
</clipPath>
<clipPath id="clip1_247_205">
<rect width="5" height="5" fill="white" transform="translate(41 21)"/>
</clipPath>
</defs>
</svg>
