<svg width="63" height="49" viewBox="0 0 63 49" fill="none" xmlns="http://www.w3.org/2000/svg">
<g filter="url(#filter0_d_2027_7598)">
<path d="M6.82951 0.143499C5.29472 0.444947 4.02816 1.39236 3.38742 2.71299L3 3.51685V21.2449V38.9729L3.38742 39.7624C3.90895 40.8103 4.57948 41.4276 5.75665 41.973L6.7252 42.418L12.2385 42.4611C18.0051 42.5185 18.8097 42.4611 19.9571 41.8869C20.881 41.4419 21.626 40.6811 22.0879 39.7337L22.52 38.8294L22.5647 33.5756L22.6094 28.3217L18.3329 28.2356C15.9786 28.1782 14.0266 28.1495 14.0117 28.1782C13.9819 28.2069 13.9521 30.518 13.9521 33.3028C13.9372 39.059 13.967 38.9011 12.8345 38.9011C11.6723 38.9011 11.717 39.1452 11.717 32.4846C11.717 27.0442 11.7319 26.5848 11.9852 26.3695C12.2087 26.1685 12.9835 26.1255 17.424 26.0393L22.6094 25.9389L22.5647 14.7279L22.52 3.51685L22.1028 2.71299C21.5813 1.67945 20.6574 0.846877 19.525 0.416237C18.6607 0.0860789 18.5564 0.0717266 13.058 0.0430173C9.98847 0.0286626 7.18712 0.0860798 6.82951 0.143499ZM13.7584 4.4499C13.9074 4.72264 13.9521 6.67488 13.9521 12.833C13.9521 21.8621 14.0117 21.3884 12.8643 21.3884C11.6425 21.3884 11.717 21.9626 11.717 12.7326C11.717 3.41637 11.6425 3.9762 12.8941 4.04797C13.4455 4.07668 13.6094 4.16281 13.7584 4.4499Z" fill="#001228"/>
</g>
<g filter="url(#filter1_d_2027_7598)">
<path d="M29.4497 0.201182C28.3023 0.445211 27.4977 0.890207 26.7973 1.65101C25.5903 2.97164 25.65 2.26826 25.6052 14.7999L25.5605 25.9391L30.7907 26.0109C35.5143 26.0827 36.0507 26.1114 36.304 26.3411C36.5871 26.5851 36.602 26.8291 36.602 32.5136C36.602 39.1885 36.6467 38.9014 35.4547 38.9014C34.3371 38.9014 34.3669 39.0449 34.3669 33.26V28.1354H29.9563H25.5605L25.6052 33.5471C25.65 38.7435 25.6649 39.0019 25.9778 39.6478C26.6334 40.9972 27.751 41.8728 29.3752 42.2891C30.3437 42.5475 40.059 42.5762 41.2511 42.3322C43.2031 41.9302 44.4548 40.8393 45.0061 39.0449C45.2147 38.3846 45.2445 37.1358 45.2445 29.901V21.5322H40.1335H35.0076L34.6947 21.2021L34.3669 20.8719V12.6754C34.3669 3.44534 34.2924 4.01953 35.5143 4.01953C36.6616 4.01953 36.602 3.6176 36.602 11.9577V19.379H40.9233H45.2594L45.2147 11.4409C45.17 3.51711 45.17 3.51711 44.8273 2.79938C44.1567 1.39262 42.8455 0.459566 41.1468 0.158118C39.91 -0.0715567 30.5225 -0.0284933 29.4497 0.201182Z" fill="#001228"/>
</g>
<path d="M47.7019 0.22963C47.4933 0.44495 47.4635 0.918654 47.5082 4.30636C47.5678 9.07211 47.4486 8.84243 49.5645 8.68453C50.3393 8.64147 52.4999 8.45486 54.3625 8.2826C57.149 8.00986 57.7897 7.90938 58.043 7.69406C58.341 7.43568 58.3559 7.27778 58.3559 3.94749C58.3559 0.760753 58.3261 0.459305 58.0877 0.243985C57.8344 0.0286646 57.2533 -4.51251e-05 52.8725 -4.51251e-05C48.5214 -4.51251e-05 47.9254 0.0286648 47.7019 0.22963Z" fill="#0061B1"/>
<path d="M53.6003 9.40333C50.799 9.67607 48.4595 9.9201 48.4148 9.94881C48.2956 10.0636 52.1102 11.7719 52.4679 11.7719C52.6616 11.7719 54.7775 11.5422 57.1765 11.2694C59.5904 10.9823 61.9299 10.724 62.3769 10.6665C62.9878 10.5948 63.1219 10.5517 62.8984 10.4656C62.7345 10.3938 61.8852 10.0493 61.0209 9.70478C60.1418 9.34591 59.2775 9.03011 59.0838 8.98704C58.8901 8.95833 56.4166 9.14494 53.6003 9.40333Z" fill="#0061B1"/>
<path d="M50.4299 13.3059L48.2246 13.3634V27.919V42.489H52.6203H57.0161V27.8472V13.2055L54.8257 13.2342C53.6038 13.2485 51.6369 13.2916 50.4299 13.3059Z" fill="#001228"/>
<defs>
<filter id="filter0_d_2027_7598" x="0.00526214" y="0.0407715" width="25.5989" height="48.4273" filterUnits="userSpaceOnUse" color-interpolation-filters="sRGB">
<feFlood flood-opacity="0" result="BackgroundImageFix"/>
<feColorMatrix in="SourceAlpha" type="matrix" values="0 0 0 0 0 0 0 0 0 0 0 0 0 0 0 0 0 0 127 0" result="hardAlpha"/>
<feOffset dy="2.99474"/>
<feGaussianBlur stdDeviation="1.49737"/>
<feComposite in2="hardAlpha" operator="out"/>
<feColorMatrix type="matrix" values="0 0 0 0 0.00392157 0 0 0 0 0.0784314 0 0 0 0 0.156863 0 0 0 0.15 0"/>
<feBlend mode="normal" in2="BackgroundImageFix" result="effect1_dropShadow_2027_7598"/>
<feBlend mode="normal" in="SourceGraphic" in2="effect1_dropShadow_2027_7598" result="shape"/>
</filter>
<filter id="filter1_d_2027_7598" x="22.5658" y="0.00585938" width="25.6887" height="48.4836" filterUnits="userSpaceOnUse" color-interpolation-filters="sRGB">
<feFlood flood-opacity="0" result="BackgroundImageFix"/>
<feColorMatrix in="SourceAlpha" type="matrix" values="0 0 0 0 0 0 0 0 0 0 0 0 0 0 0 0 0 0 127 0" result="hardAlpha"/>
<feOffset dy="2.99474"/>
<feGaussianBlur stdDeviation="1.49737"/>
<feComposite in2="hardAlpha" operator="out"/>
<feColorMatrix type="matrix" values="0 0 0 0 0.00392157 0 0 0 0 0.0784314 0 0 0 0 0.156863 0 0 0 0.15 0"/>
<feBlend mode="normal" in2="BackgroundImageFix" result="effect1_dropShadow_2027_7598"/>
<feBlend mode="normal" in="SourceGraphic" in2="effect1_dropShadow_2027_7598" result="shape"/>
</filter>
</defs>
</svg>
