<svg width="224" height="67" viewBox="0 0 224 67" fill="none" xmlns="http://www.w3.org/2000/svg">
<g filter="url(#filter0_d_2095_7985)">
<path d="M10.2853 0.1979C8.16708 0.613474 6.41902 1.91956 5.5347 3.74018L5 4.84838V29.2881V53.7278L5.5347 54.8162C6.25449 56.2609 7.17994 57.1118 8.80461 57.8638L10.1414 58.4772L17.7506 58.5366C25.7094 58.6158 26.8199 58.5366 28.4035 57.745C29.6785 57.1316 30.7068 56.0827 31.3443 54.7767L31.9407 53.5299L32.0024 46.2871L32.0641 39.0442L26.1619 38.9255C22.9125 38.8463 20.2184 38.8067 20.1979 38.8463C20.1567 38.8859 20.1156 42.072 20.1156 45.9111C20.095 53.8466 20.1362 53.6289 18.5732 53.6289C16.9691 53.6289 17.0308 53.9653 17.0308 44.7831C17.0308 37.283 17.0514 36.6497 17.401 36.3529C17.7094 36.0758 18.7789 36.0164 24.9074 35.8977L32.0641 35.7592L32.0024 20.3038L31.9407 4.84838L31.3649 3.74018C30.6451 2.31535 29.3701 1.16757 27.8071 0.573894C26.6143 0.118742 26.4703 0.0989558 18.8817 0.0593773C14.6452 0.039588 10.7789 0.118743 10.2853 0.1979ZM19.8483 6.13468C20.0539 6.51067 20.1156 9.20201 20.1156 17.6916C20.1156 30.139 20.1979 29.486 18.6143 29.486C16.928 29.486 17.0308 30.2776 17.0308 17.5531C17.0308 4.70985 16.928 5.48163 18.6555 5.58058C19.4164 5.62015 19.6426 5.73889 19.8483 6.13468Z" fill="#001228"/>
</g>
<g filter="url(#filter1_d_2095_7985)">
<path d="M41.5023 0.277388C39.9188 0.613805 38.8083 1.22727 37.8417 2.2761C36.1759 4.09671 36.2582 3.12704 36.1965 20.4031L36.1348 35.7595L43.3532 35.8585C49.8725 35.9574 50.6128 35.997 50.9625 36.3136C51.3532 36.65 51.3738 36.9864 51.3738 44.823C51.3738 54.025 51.4355 53.6292 49.7902 53.6292C48.2478 53.6292 48.2889 53.8271 48.2889 45.852V38.7873H42.2016H36.1348L36.1965 46.2478C36.2582 53.4115 36.2787 53.7677 36.7106 54.6582C37.6155 56.5184 39.1579 57.7256 41.3995 58.2995C42.7363 58.6557 56.1449 58.6953 57.7902 58.3588C60.4843 57.8047 62.2117 56.3008 62.9727 53.8271C63.2606 52.9168 63.3017 51.1951 63.3017 41.2213V29.6842H56.2478H49.1733L48.7414 29.2291L48.2889 28.7739V17.4742C48.2889 4.74976 48.1861 5.54133 49.8725 5.54133C51.456 5.54133 51.3738 4.98723 51.3738 16.4848V26.7158H57.3377H63.3223L63.2606 15.7724C63.1989 4.8487 63.1989 4.8487 62.7259 3.85924C61.8004 1.9199 59.9907 0.633596 57.6462 0.218021C55.9393 -0.0986067 42.9831 -0.0392398 41.5023 0.277388Z" fill="#001228"/>
</g>
<path d="M66.6944 0.316576C66.4065 0.613415 66.3654 1.26646 66.4271 5.93672C66.5094 12.5067 66.3448 12.1901 69.2651 11.9724C70.3345 11.9131 73.3165 11.6558 75.8872 11.4183C79.7329 11.0423 80.6173 10.9038 80.9669 10.607C81.3782 10.2508 81.3987 10.0331 81.3987 5.44199C81.3987 1.04878 81.3576 0.633204 81.0286 0.336365C80.679 0.0395263 79.8769 -5.27569e-05 73.8307 -5.27569e-05C67.8255 -5.27569e-05 67.0029 0.0395265 66.6944 0.316576Z" fill="#0061B1"/>
<path d="M74.8383 12.9634C70.972 13.3394 67.7432 13.6758 67.6815 13.7154C67.517 13.8737 72.7817 16.2286 73.2753 16.2286C73.5427 16.2286 76.463 15.912 79.774 15.536C83.1056 15.1402 86.3344 14.784 86.9513 14.7049C87.7945 14.6059 87.9796 14.5466 87.6711 14.4278C87.4449 14.3289 86.2727 13.8539 85.0799 13.379C83.8665 12.8843 82.6737 12.4489 82.4064 12.3895C82.139 12.3499 78.7252 12.6072 74.8383 12.9634Z" fill="#0061B1"/>
<path d="M70.4597 18.3435L67.416 18.4227V38.489V58.5751H73.4828H79.5496V38.39V18.205L76.5265 18.2446C74.8401 18.2644 72.1255 18.3237 70.4597 18.3435Z" fill="#001228"/>
<path d="M103.496 5.82654V9.4906H105.533C106.062 9.4906 106.415 9.41085 106.593 9.25134C106.83 9.04171 106.962 8.67257 106.989 8.14392H107.242V11.3705H106.989C106.925 10.9193 106.862 10.6299 106.798 10.5023C106.716 10.3428 106.581 10.2175 106.395 10.1263C106.208 10.0352 105.921 9.98962 105.533 9.98962H103.496V13.0453C103.496 13.4554 103.514 13.7061 103.551 13.7972C103.587 13.8838 103.651 13.9545 103.742 14.0092C103.833 14.0593 104.007 14.0844 104.262 14.0844H105.834C106.358 14.0844 106.739 14.0479 106.976 13.975C107.213 13.9021 107.44 13.7585 107.659 13.5443C107.942 13.2618 108.231 12.8357 108.527 12.266H108.801L108.001 14.5902H100.857V14.3373H101.186C101.404 14.3373 101.612 14.2849 101.808 14.1801C101.953 14.1071 102.051 13.9978 102.102 13.8519C102.156 13.7061 102.184 13.4076 102.184 12.9564V6.93396C102.184 6.34607 102.124 5.98376 102.006 5.84705C101.842 5.66475 101.568 5.57361 101.186 5.57361H100.857V5.32068H108.001L108.104 7.35095H107.837C107.741 6.86332 107.634 6.52836 107.516 6.34607C107.402 6.16378 107.231 6.02478 107.003 5.92908C106.821 5.86072 106.499 5.82654 106.039 5.82654H103.496ZM117.558 5.10876L117.77 8.26013H117.558C117.275 7.31677 116.872 6.63774 116.348 6.22302C115.824 5.80831 115.195 5.60095 114.461 5.60095C113.846 5.60095 113.29 5.75818 112.793 6.07263C112.296 6.38253 111.904 6.87927 111.617 7.56287C111.335 8.24646 111.193 9.09639 111.193 10.1127C111.193 10.9512 111.328 11.6781 111.597 12.2933C111.866 12.9086 112.269 13.3802 112.807 13.7084C113.349 14.0365 113.966 14.2006 114.659 14.2006C115.261 14.2006 115.792 14.073 116.252 13.8177C116.712 13.558 117.218 13.0453 117.77 12.2797L117.981 12.4164C117.517 13.2413 116.974 13.8451 116.354 14.2279C115.735 14.6107 114.999 14.8021 114.146 14.8021C112.611 14.8021 111.421 14.2325 110.578 13.0931C109.949 12.2455 109.635 11.2474 109.635 10.099C109.635 9.17387 109.842 8.32393 110.257 7.54919C110.672 6.77445 111.241 6.17517 111.966 5.75134C112.695 5.32296 113.49 5.10876 114.352 5.10876C115.021 5.10876 115.682 5.27283 116.334 5.60095C116.525 5.70121 116.662 5.75134 116.744 5.75134C116.867 5.75134 116.974 5.70805 117.065 5.62146C117.184 5.49841 117.268 5.32751 117.318 5.10876H117.558ZM123.587 5.10876C124.79 5.10876 125.831 5.56677 126.711 6.48279C127.595 7.39425 128.037 8.53357 128.037 9.90076C128.037 11.309 127.593 12.4779 126.704 13.4076C125.815 14.3373 124.74 14.8021 123.478 14.8021C122.201 14.8021 121.128 14.3487 120.258 13.4418C119.392 12.5349 118.959 11.3614 118.959 9.92126C118.959 8.44926 119.46 7.24841 120.463 6.31873C121.333 5.51208 122.375 5.10876 123.587 5.10876ZM123.457 5.60779C122.628 5.60779 121.962 5.91541 121.461 6.53064C120.837 7.29626 120.524 8.41736 120.524 9.89392C120.524 11.4069 120.848 12.5713 121.495 13.3871C121.992 14.0069 122.648 14.3168 123.464 14.3168C124.334 14.3168 125.052 13.9773 125.617 13.2982C126.187 12.6192 126.472 11.5482 126.472 10.0853C126.472 8.49939 126.16 7.31677 125.535 6.53748C125.034 5.91768 124.341 5.60779 123.457 5.60779ZM136.609 12.0267L136.835 12.0746L136.042 14.5902H128.864V14.3373H129.213C129.605 14.3373 129.885 14.2097 130.054 13.9545C130.149 13.8086 130.197 13.4714 130.197 12.9427V6.9613C130.197 6.38253 130.133 6.02022 130.006 5.87439C129.828 5.67387 129.564 5.57361 129.213 5.57361H128.864V5.32068H133.062V5.57361C132.569 5.56905 132.223 5.61462 132.022 5.71033C131.826 5.80603 131.692 5.9268 131.619 6.07263C131.546 6.21847 131.51 6.5671 131.51 7.11853V12.9427C131.51 13.321 131.546 13.5808 131.619 13.722C131.674 13.8177 131.758 13.8884 131.872 13.934C131.986 13.9795 132.341 14.0023 132.938 14.0023H133.615C134.326 14.0023 134.825 13.9499 135.112 13.8451C135.399 13.7403 135.661 13.5557 135.898 13.2914C136.135 13.0225 136.372 12.601 136.609 12.0267ZM140.068 5.82654V9.4906H142.105C142.634 9.4906 142.987 9.41085 143.165 9.25134C143.402 9.04171 143.534 8.67257 143.562 8.14392H143.814V11.3705H143.562C143.498 10.9193 143.434 10.6299 143.37 10.5023C143.288 10.3428 143.154 10.2175 142.967 10.1263C142.78 10.0352 142.493 9.98962 142.105 9.98962H140.068V13.0453C140.068 13.4554 140.087 13.7061 140.123 13.7972C140.16 13.8838 140.223 13.9545 140.314 14.0092C140.406 14.0593 140.579 14.0844 140.834 14.0844H142.406C142.93 14.0844 143.311 14.0479 143.548 13.975C143.785 13.9021 144.013 13.7585 144.231 13.5443C144.514 13.2618 144.803 12.8357 145.1 12.266H145.373L144.573 14.5902H137.43V14.3373H137.758C137.977 14.3373 138.184 14.2849 138.38 14.1801C138.526 14.1071 138.624 13.9978 138.674 13.8519C138.729 13.7061 138.756 13.4076 138.756 12.9564V6.93396C138.756 6.34607 138.697 5.98376 138.578 5.84705C138.414 5.66475 138.141 5.57361 137.758 5.57361H137.43V5.32068H144.573L144.676 7.35095H144.409C144.313 6.86332 144.206 6.52836 144.088 6.34607C143.974 6.16378 143.803 6.02478 143.575 5.92908C143.393 5.86072 143.072 5.82654 142.611 5.82654H140.068ZM149.017 5.32068H151.532L157.199 12.2728V6.92712C157.199 6.35746 157.135 6.00199 157.008 5.86072C156.839 5.66931 156.573 5.57361 156.208 5.57361H155.887V5.32068H159.113V5.57361H158.785C158.393 5.57361 158.115 5.6921 157.951 5.92908C157.851 6.07491 157.801 6.40759 157.801 6.92712V14.7406H157.555L151.443 7.27576V12.9838C151.443 13.5534 151.505 13.9089 151.628 14.0502C151.801 14.2416 152.068 14.3373 152.428 14.3373H152.756V14.5902H149.529V14.3373H149.851C150.247 14.3373 150.527 14.2188 150.691 13.9818C150.792 13.836 150.842 13.5033 150.842 12.9838V6.53748C150.573 6.22302 150.368 6.01567 150.227 5.91541C150.09 5.81514 149.887 5.72172 149.618 5.63513C149.486 5.59412 149.285 5.57361 149.017 5.57361V5.32068ZM165.724 11.4867H162.135L161.506 12.9496C161.351 13.3096 161.273 13.5785 161.273 13.7562C161.273 13.8975 161.34 14.0228 161.472 14.1322C161.608 14.237 161.9 14.3054 162.347 14.3373V14.5902H159.428V14.3373C159.815 14.2689 160.066 14.1801 160.18 14.0707C160.412 13.8519 160.67 13.4076 160.952 12.7377L164.213 5.10876H164.452L167.679 12.8197C167.938 13.4395 168.173 13.8428 168.383 14.0297C168.597 14.212 168.893 14.3145 169.271 14.3373V14.5902H165.614V14.3373C165.983 14.3191 166.232 14.2575 166.359 14.1527C166.492 14.0479 166.558 13.9203 166.558 13.7699C166.558 13.5694 166.466 13.2526 166.284 12.8197L165.724 11.4867ZM165.532 10.9808L163.96 7.23474L162.347 10.9808H165.532ZM175.978 5.32068L176.08 7.49451H175.82C175.77 7.11169 175.702 6.83826 175.615 6.67419C175.474 6.40987 175.285 6.21619 175.048 6.09314C174.815 5.96554 174.508 5.90173 174.125 5.90173H172.819V12.9838C172.819 13.5534 172.881 13.9089 173.004 14.0502C173.177 14.2416 173.444 14.3373 173.804 14.3373H174.125V14.5902H170.194V14.3373H170.522C170.914 14.3373 171.192 14.2188 171.356 13.9818C171.457 13.836 171.507 13.5033 171.507 12.9838V5.90173H170.393C169.96 5.90173 169.652 5.93363 169.47 5.99744C169.233 6.08403 169.03 6.25037 168.861 6.49646C168.693 6.74255 168.592 7.07524 168.561 7.49451H168.301L168.41 5.32068H175.978ZM180.756 14.3373V14.5902H176.784V14.3373H177.112C177.495 14.3373 177.773 14.2256 177.946 14.0023C178.056 13.8565 178.11 13.5056 178.11 12.9496V6.9613C178.11 6.4919 178.081 6.18201 178.021 6.03162C177.976 5.91768 177.882 5.8197 177.741 5.73767C177.541 5.6283 177.331 5.57361 177.112 5.57361H176.784V5.32068H180.756V5.57361H180.421C180.043 5.57361 179.767 5.68526 179.594 5.90857C179.48 6.0544 179.423 6.40531 179.423 6.9613V12.9496C179.423 13.419 179.452 13.7289 179.512 13.8793C179.557 13.9932 179.653 14.0912 179.799 14.1732C179.995 14.2826 180.202 14.3373 180.421 14.3373H180.756ZM186.218 5.10876C187.421 5.10876 188.462 5.56677 189.342 6.48279C190.226 7.39425 190.668 8.53357 190.668 9.90076C190.668 11.309 190.224 12.4779 189.335 13.4076C188.446 14.3373 187.371 14.8021 186.108 14.8021C184.832 14.8021 183.759 14.3487 182.889 13.4418C182.023 12.5349 181.59 11.3614 181.59 9.92126C181.59 8.44926 182.091 7.24841 183.094 6.31873C183.964 5.51208 185.006 5.10876 186.218 5.10876ZM186.088 5.60779C185.258 5.60779 184.593 5.91541 184.092 6.53064C183.467 7.29626 183.155 8.41736 183.155 9.89392C183.155 11.4069 183.479 12.5713 184.126 13.3871C184.623 14.0069 185.279 14.3168 186.095 14.3168C186.965 14.3168 187.683 13.9773 188.248 13.2982C188.818 12.6192 189.103 11.5482 189.103 10.0853C189.103 8.49939 188.79 7.31677 188.166 6.53748C187.665 5.91768 186.972 5.60779 186.088 5.60779ZM191.03 5.32068H193.546L199.213 12.2728V6.92712C199.213 6.35746 199.149 6.00199 199.021 5.86072C198.853 5.66931 198.586 5.57361 198.222 5.57361H197.9V5.32068H201.127V5.57361H200.799C200.407 5.57361 200.129 5.6921 199.965 5.92908C199.865 6.07491 199.814 6.40759 199.814 6.92712V14.7406H199.568L193.457 7.27576V12.9838C193.457 13.5534 193.519 13.9089 193.642 14.0502C193.815 14.2416 194.081 14.3373 194.441 14.3373H194.77V14.5902H191.543V14.3373H191.864C192.261 14.3373 192.541 14.2188 192.705 13.9818C192.805 13.836 192.855 13.5033 192.855 12.9838V6.53748C192.587 6.22302 192.382 6.01567 192.24 5.91541C192.104 5.81514 191.901 5.72172 191.632 5.63513C191.5 5.59412 191.299 5.57361 191.03 5.57361V5.32068ZM207.737 11.4867H204.148L203.52 12.9496C203.365 13.3096 203.287 13.5785 203.287 13.7562C203.287 13.8975 203.353 14.0228 203.485 14.1322C203.622 14.237 203.914 14.3054 204.36 14.3373V14.5902H201.441V14.3373C201.829 14.2689 202.079 14.1801 202.193 14.0707C202.426 13.8519 202.683 13.4076 202.966 12.7377L206.227 5.10876H206.466L209.692 12.8197C209.952 13.4395 210.187 13.8428 210.396 14.0297C210.611 14.212 210.907 14.3145 211.285 14.3373V14.5902H207.628V14.3373C207.997 14.3191 208.245 14.2575 208.373 14.1527C208.505 14.0479 208.571 13.9203 208.571 13.7699C208.571 13.5694 208.48 13.2526 208.298 12.8197L207.737 11.4867ZM207.546 10.9808L205.974 7.23474L204.36 10.9808H207.546ZM219.475 12.0267L219.7 12.0746L218.907 14.5902H211.729V14.3373H212.078C212.47 14.3373 212.75 14.2097 212.919 13.9545C213.015 13.8086 213.062 13.4714 213.062 12.9427V6.9613C213.062 6.38253 212.999 6.02022 212.871 5.87439C212.693 5.67387 212.429 5.57361 212.078 5.57361H211.729V5.32068H215.927V5.57361C215.435 5.56905 215.088 5.61462 214.888 5.71033C214.692 5.80603 214.557 5.9268 214.484 6.07263C214.411 6.21847 214.375 6.5671 214.375 7.11853V12.9427C214.375 13.321 214.411 13.5808 214.484 13.722C214.539 13.8177 214.623 13.8884 214.737 13.934C214.851 13.9795 215.207 14.0023 215.804 14.0023H216.48C217.191 14.0023 217.69 13.9499 217.978 13.8451C218.265 13.7403 218.527 13.5557 218.764 13.2914C219.001 13.0225 219.238 12.601 219.475 12.0267ZM106.989 25.1088V28.3148H106.736C106.654 27.6996 106.506 27.2097 106.292 26.8451C106.082 26.4805 105.782 26.1911 105.39 25.9769C104.998 25.7627 104.592 25.6556 104.173 25.6556C103.699 25.6556 103.307 25.8015 102.997 26.0931C102.687 26.3802 102.532 26.7084 102.532 27.0775C102.532 27.3601 102.63 27.6176 102.826 27.85C103.109 28.1918 103.781 28.6475 104.843 29.2172C105.709 29.682 106.299 30.0398 106.613 30.2904C106.932 30.5365 107.176 30.8282 107.345 31.1654C107.518 31.5026 107.604 31.8558 107.604 32.225C107.604 32.9268 107.331 33.5329 106.784 34.0433C106.242 34.5492 105.542 34.8021 104.686 34.8021C104.417 34.8021 104.164 34.7816 103.927 34.7406C103.785 34.7178 103.492 34.6358 103.045 34.4945C102.603 34.3487 102.323 34.2758 102.204 34.2758C102.09 34.2758 101.999 34.3099 101.931 34.3783C101.867 34.4467 101.819 34.5879 101.787 34.8021H101.534V31.6234H101.787C101.906 32.2888 102.065 32.7878 102.266 33.1205C102.466 33.4486 102.771 33.722 103.182 33.9408C103.596 34.1595 104.05 34.2689 104.542 34.2689C105.112 34.2689 105.561 34.1185 105.889 33.8177C106.221 33.517 106.388 33.1615 106.388 32.7513C106.388 32.5235 106.324 32.2933 106.196 32.0609C106.073 31.8285 105.88 31.612 105.615 31.4115C105.438 31.2748 104.952 30.9854 104.159 30.5433C103.366 30.0967 102.801 29.7413 102.464 29.4769C102.131 29.2126 101.878 28.9209 101.705 28.6019C101.532 28.2829 101.445 27.932 101.445 27.5492C101.445 26.8838 101.701 26.3119 102.211 25.8334C102.721 25.3503 103.371 25.1088 104.159 25.1088C104.651 25.1088 105.173 25.2295 105.725 25.4711C105.98 25.585 106.16 25.642 106.265 25.642C106.383 25.642 106.479 25.6078 106.552 25.5394C106.629 25.4665 106.691 25.323 106.736 25.1088H106.989ZM115.042 25.5736V25.3207H118.323V25.5736H117.975C117.61 25.5736 117.33 25.7263 117.134 26.0316C117.038 26.1729 116.99 26.501 116.99 27.016V30.7758C116.99 31.7054 116.897 32.4278 116.71 32.9427C116.528 33.4532 116.165 33.8929 115.623 34.2621C115.085 34.6267 114.352 34.809 113.422 34.809C112.41 34.809 111.642 34.6335 111.118 34.2826C110.594 33.9317 110.223 33.46 110.004 32.8676C109.858 32.462 109.785 31.7009 109.785 30.5844V26.9613C109.785 26.3916 109.705 26.0179 109.546 25.8402C109.391 25.6625 109.138 25.5736 108.787 25.5736H108.438V25.3207H112.444V25.5736H112.089C111.706 25.5736 111.433 25.6944 111.269 25.9359C111.155 26.1 111.098 26.4418 111.098 26.9613V31.0013C111.098 31.3614 111.13 31.7738 111.193 32.2386C111.262 32.7035 111.382 33.0658 111.556 33.3256C111.729 33.5853 111.977 33.7995 112.301 33.9681C112.629 34.1368 113.03 34.2211 113.504 34.2211C114.11 34.2211 114.652 34.0889 115.131 33.8246C115.609 33.5603 115.935 33.223 116.108 32.8129C116.286 32.3982 116.375 31.6986 116.375 30.7142V26.9613C116.375 26.3825 116.311 26.0202 116.184 25.8744C116.006 25.6739 115.742 25.5736 115.391 25.5736H115.042ZM121.352 30.2494V32.9496C121.352 33.5329 121.415 33.8952 121.543 34.0365C121.716 34.237 121.978 34.3373 122.329 34.3373H122.685V34.5902H118.713V34.3373H119.062C119.453 34.3373 119.734 34.2097 119.902 33.9545C119.993 33.8132 120.039 33.4782 120.039 32.9496V26.9613C120.039 26.378 119.978 26.0157 119.854 25.8744C119.677 25.6739 119.412 25.5736 119.062 25.5736H118.713V25.3207H122.11C122.94 25.3207 123.594 25.4073 124.072 25.5804C124.551 25.7491 124.954 26.0362 125.282 26.4418C125.61 26.8474 125.774 27.3282 125.774 27.8842C125.774 28.6407 125.524 29.2559 125.022 29.7299C124.526 30.2038 123.822 30.4408 122.91 30.4408C122.687 30.4408 122.445 30.4248 122.186 30.3929C121.926 30.361 121.648 30.3132 121.352 30.2494ZM121.352 29.8597C121.593 29.9053 121.807 29.9395 121.994 29.9623C122.181 29.9851 122.34 29.9965 122.473 29.9965C122.947 29.9965 123.354 29.8142 123.696 29.4496C124.043 29.0804 124.216 28.6042 124.216 28.0209C124.216 27.6198 124.134 27.2484 123.97 26.9066C123.806 26.5603 123.573 26.3028 123.272 26.1342C122.972 25.961 122.63 25.8744 122.247 25.8744C122.015 25.8744 121.716 25.9177 121.352 26.0043V29.8597ZM129.199 25.8265V29.4906H131.236C131.765 29.4906 132.118 29.4108 132.296 29.2513C132.533 29.0417 132.665 28.6726 132.692 28.1439H132.945V31.3705H132.692C132.629 30.9193 132.565 30.6299 132.501 30.5023C132.419 30.3428 132.285 30.2175 132.098 30.1263C131.911 30.0352 131.624 29.9896 131.236 29.9896H129.199V33.0453C129.199 33.4554 129.217 33.7061 129.254 33.7972C129.29 33.8838 129.354 33.9545 129.445 34.0092C129.536 34.0593 129.71 34.0844 129.965 34.0844H131.537C132.061 34.0844 132.442 34.0479 132.679 33.975C132.916 33.9021 133.144 33.7585 133.362 33.5443C133.645 33.2618 133.934 32.8357 134.23 32.266H134.504L133.704 34.5902H126.561V34.3373H126.889C127.107 34.3373 127.315 34.2849 127.511 34.1801C127.657 34.1071 127.755 33.9978 127.805 33.8519C127.859 33.7061 127.887 33.4076 127.887 32.9564V26.934C127.887 26.3461 127.827 25.9838 127.709 25.847C127.545 25.6648 127.271 25.5736 126.889 25.5736H126.561V25.3207H133.704L133.807 27.351H133.54C133.444 26.8633 133.337 26.5284 133.219 26.3461C133.105 26.1638 132.934 26.0248 132.706 25.9291C132.524 25.8607 132.202 25.8265 131.742 25.8265H129.199ZM144.293 34.5902H141.818L138.681 30.2562C138.448 30.2653 138.259 30.2699 138.113 30.2699C138.054 30.2699 137.99 30.2699 137.922 30.2699C137.854 30.2653 137.783 30.2608 137.71 30.2562V32.9496C137.71 33.5329 137.774 33.8952 137.901 34.0365C138.075 34.237 138.334 34.3373 138.681 34.3373H139.043V34.5902H135.071V34.3373H135.42C135.812 34.3373 136.092 34.2097 136.261 33.9545C136.356 33.8132 136.404 33.4782 136.404 32.9496V26.9613C136.404 26.378 136.34 26.0157 136.213 25.8744C136.035 25.6739 135.771 25.5736 135.42 25.5736H135.071V25.3207H138.448C139.433 25.3207 140.157 25.3936 140.622 25.5394C141.091 25.6807 141.488 25.945 141.812 26.3324C142.14 26.7152 142.304 27.1732 142.304 27.7064C142.304 28.2761 142.117 28.7705 141.743 29.1898C141.374 29.6091 140.8 29.9053 140.021 30.0785L141.935 32.7377C142.372 33.3483 142.748 33.7539 143.062 33.9545C143.377 34.155 143.787 34.2826 144.293 34.3373V34.5902ZM137.71 29.8256C137.797 29.8256 137.872 29.8278 137.936 29.8324C137.999 29.8324 138.052 29.8324 138.093 29.8324C138.977 29.8324 139.642 29.641 140.089 29.2582C140.54 28.8754 140.766 28.3877 140.766 27.7953C140.766 27.2165 140.583 26.7471 140.219 26.3871C139.859 26.0225 139.38 25.8402 138.783 25.8402C138.519 25.8402 138.161 25.8835 137.71 25.9701V29.8256ZM148.49 34.3373V34.5902H144.519V34.3373H144.847C145.229 34.3373 145.507 34.2256 145.681 34.0023C145.79 33.8565 145.845 33.5056 145.845 32.9496V26.9613C145.845 26.4919 145.815 26.182 145.756 26.0316C145.71 25.9177 145.617 25.8197 145.476 25.7377C145.275 25.6283 145.065 25.5736 144.847 25.5736H144.519V25.3207H148.49V25.5736H148.155C147.777 25.5736 147.501 25.6853 147.328 25.9086C147.214 26.0544 147.157 26.4053 147.157 26.9613V32.9496C147.157 33.419 147.187 33.7289 147.246 33.8793C147.292 33.9932 147.387 34.0912 147.533 34.1732C147.729 34.2826 147.937 34.3373 148.155 34.3373H148.49ZM151.758 25.8265V29.4906H153.795C154.324 29.4906 154.677 29.4108 154.854 29.2513C155.091 29.0417 155.224 28.6726 155.251 28.1439H155.504V31.3705H155.251C155.187 30.9193 155.123 30.6299 155.06 30.5023C154.978 30.3428 154.843 30.2175 154.656 30.1263C154.469 30.0352 154.182 29.9896 153.795 29.9896H151.758V33.0453C151.758 33.4554 151.776 33.7061 151.812 33.7972C151.849 33.8838 151.913 33.9545 152.004 34.0092C152.095 34.0593 152.268 34.0844 152.523 34.0844H154.096C154.62 34.0844 155 34.0479 155.237 33.975C155.474 33.9021 155.702 33.7585 155.921 33.5443C156.203 33.2618 156.493 32.8357 156.789 32.266H157.062L156.263 34.5902H149.119V34.3373H149.447C149.666 34.3373 149.873 34.2849 150.069 34.1801C150.215 34.1071 150.313 33.9978 150.363 33.8519C150.418 33.7061 150.445 33.4076 150.445 32.9564V26.934C150.445 26.3461 150.386 25.9838 150.268 25.847C150.104 25.6648 149.83 25.5736 149.447 25.5736H149.119V25.3207H156.263L156.365 27.351H156.099C156.003 26.8633 155.896 26.5284 155.777 26.3461C155.663 26.1638 155.493 26.0248 155.265 25.9291C155.082 25.8607 154.761 25.8265 154.301 25.8265H151.758ZM164.069 25.5736V25.3207H167.351V25.5736H167.002C166.637 25.5736 166.357 25.7263 166.161 26.0316C166.065 26.1729 166.018 26.501 166.018 27.016V30.7758C166.018 31.7054 165.924 32.4278 165.737 32.9427C165.555 33.4532 165.193 33.8929 164.65 34.2621C164.113 34.6267 163.379 34.809 162.449 34.809C161.438 34.809 160.67 34.6335 160.146 34.2826C159.621 33.9317 159.25 33.46 159.031 32.8676C158.885 32.462 158.812 31.7009 158.812 30.5844V26.9613C158.812 26.3916 158.733 26.0179 158.573 25.8402C158.418 25.6625 158.165 25.5736 157.814 25.5736H157.466V25.3207H161.472V25.5736H161.116C160.733 25.5736 160.46 25.6944 160.296 25.9359C160.182 26.1 160.125 26.4418 160.125 26.9613V31.0013C160.125 31.3614 160.157 31.7738 160.221 32.2386C160.289 32.7035 160.41 33.0658 160.583 33.3256C160.756 33.5853 161.005 33.7995 161.328 33.9681C161.656 34.1368 162.057 34.2211 162.531 34.2211C163.137 34.2211 163.68 34.0889 164.158 33.8246C164.637 33.5603 164.963 33.223 165.136 32.8129C165.313 32.3982 165.402 31.6986 165.402 30.7142V26.9613C165.402 26.3825 165.339 26.0202 165.211 25.8744C165.033 25.6739 164.769 25.5736 164.418 25.5736H164.069ZM176.969 34.5902H174.494L171.356 30.2562C171.124 30.2653 170.935 30.2699 170.789 30.2699C170.73 30.2699 170.666 30.2699 170.598 30.2699C170.529 30.2653 170.459 30.2608 170.386 30.2562V32.9496C170.386 33.5329 170.45 33.8952 170.577 34.0365C170.75 34.237 171.01 34.3373 171.356 34.3373H171.719V34.5902H167.747V34.3373H168.096C168.488 34.3373 168.768 34.2097 168.937 33.9545C169.032 33.8132 169.08 33.4782 169.08 32.9496V26.9613C169.08 26.378 169.016 26.0157 168.889 25.8744C168.711 25.6739 168.447 25.5736 168.096 25.5736H167.747V25.3207H171.124C172.108 25.3207 172.833 25.3936 173.298 25.5394C173.767 25.6807 174.164 25.945 174.487 26.3324C174.815 26.7152 174.979 27.1732 174.979 27.7064C174.979 28.2761 174.793 28.7705 174.419 29.1898C174.05 29.6091 173.476 29.9053 172.696 30.0785L174.61 32.7377C175.048 33.3483 175.424 33.7539 175.738 33.9545C176.053 34.155 176.463 34.2826 176.969 34.3373V34.5902ZM170.386 29.8256C170.472 29.8256 170.548 29.8278 170.611 29.8324C170.675 29.8324 170.728 29.8324 170.769 29.8324C171.653 29.8324 172.318 29.641 172.765 29.2582C173.216 28.8754 173.441 28.3877 173.441 27.7953C173.441 27.2165 173.259 26.7471 172.895 26.3871C172.535 26.0225 172.056 25.8402 171.459 25.8402C171.195 25.8402 170.837 25.8835 170.386 25.9701V29.8256ZM100.81 54.5902V54.3373H101.158C101.55 54.3373 101.828 54.212 101.992 53.9613C102.092 53.8109 102.143 53.4737 102.143 52.9496V46.9613C102.143 46.3825 102.079 46.0202 101.951 45.8744C101.773 45.6739 101.509 45.5736 101.158 45.5736H100.81V45.3207H104.583C105.968 45.3207 107.021 45.4779 107.741 45.7924C108.466 46.1068 109.047 46.6309 109.484 47.3646C109.926 48.0983 110.147 48.946 110.147 49.9076C110.147 51.1973 109.756 52.2751 108.972 53.141C108.092 54.1071 106.752 54.5902 104.952 54.5902H100.81ZM103.455 53.9203C104.034 54.0479 104.519 54.1117 104.911 54.1117C105.968 54.1117 106.846 53.7403 107.543 52.9974C108.24 52.2546 108.589 51.2474 108.589 49.976C108.589 48.6954 108.24 47.6859 107.543 46.9476C106.846 46.2094 105.95 45.8402 104.856 45.8402C104.446 45.8402 103.979 45.9063 103.455 46.0385V53.9203ZM112.314 48.6498V48.3285C112.784 48.0505 113.103 47.7907 113.271 47.5492C113.39 47.376 113.449 47.1687 113.449 46.9271C113.449 46.7858 113.424 46.681 113.374 46.6127C113.319 46.5443 113.26 46.5101 113.196 46.5101C113.146 46.5101 113.08 46.5261 112.998 46.558C112.88 46.599 112.782 46.6195 112.704 46.6195C112.522 46.6195 112.36 46.5511 112.219 46.4144C112.077 46.2777 112.007 46.1068 112.007 45.9017C112.007 45.6739 112.077 45.4961 112.219 45.3685C112.41 45.1954 112.638 45.1088 112.902 45.1088C113.208 45.1088 113.481 45.2386 113.723 45.4984C113.969 45.7536 114.092 46.0726 114.092 46.4554C114.092 46.9932 113.889 47.4831 113.483 47.9252C113.215 48.2168 112.825 48.4584 112.314 48.6498ZM119.67 54.3373V54.5902H115.698V54.3373H116.026C116.409 54.3373 116.687 54.2256 116.86 54.0023C116.97 53.8565 117.024 53.5056 117.024 52.9496V46.9613C117.024 46.4919 116.995 46.182 116.936 46.0316C116.89 45.9177 116.797 45.8197 116.655 45.7377C116.455 45.6283 116.245 45.5736 116.026 45.5736H115.698V45.3207H119.67V45.5736H119.335C118.957 45.5736 118.681 45.6853 118.508 45.9086C118.394 46.0544 118.337 46.4053 118.337 46.9613V52.9496C118.337 53.419 118.367 53.7289 118.426 53.8793C118.471 53.9932 118.567 54.0912 118.713 54.1732C118.909 54.2826 119.116 54.3373 119.335 54.3373H119.67ZM119.827 45.3207H122.343L128.01 52.2728V46.9271C128.01 46.3575 127.946 46.002 127.818 45.8607C127.65 45.6693 127.383 45.5736 127.019 45.5736H126.697V45.3207H129.924V45.5736H129.596C129.204 45.5736 128.926 45.6921 128.762 45.9291C128.661 46.0749 128.611 46.4076 128.611 46.9271V54.7406H128.365L122.254 47.2758V52.9838C122.254 53.5534 122.315 53.9089 122.438 54.0502C122.612 54.2416 122.878 54.3373 123.238 54.3373H123.566V54.5902H120.34V54.3373H120.661C121.058 54.3373 121.338 54.2188 121.502 53.9818C121.602 53.836 121.652 53.5033 121.652 52.9838V46.5375C121.383 46.223 121.178 46.0157 121.037 45.9154C120.9 45.8151 120.698 45.7217 120.429 45.6351C120.297 45.5941 120.096 45.5736 119.827 45.5736V45.3207ZM132.993 45.8265V49.4701H134.682C135.069 49.4701 135.352 49.3858 135.529 49.2172C135.712 49.044 135.832 48.7045 135.892 48.1986H136.145V51.3363H135.892C135.887 50.9763 135.839 50.712 135.748 50.5433C135.661 50.3747 135.538 50.2494 135.379 50.1674C135.224 50.0808 134.992 50.0375 134.682 50.0375H132.993V52.9496C132.993 53.419 133.023 53.7289 133.082 53.8793C133.128 53.9932 133.223 54.0912 133.369 54.1732C133.57 54.2826 133.779 54.3373 133.998 54.3373H134.333V54.5902H130.354V54.3373H130.683C131.065 54.3373 131.343 54.2256 131.517 54.0023C131.626 53.8565 131.681 53.5056 131.681 52.9496V46.9613C131.681 46.4919 131.651 46.182 131.592 46.0316C131.546 45.9177 131.453 45.8197 131.312 45.7377C131.116 45.6283 130.906 45.5736 130.683 45.5736H130.354V45.3207H137.252L137.341 47.3578H137.102C136.983 46.9248 136.844 46.6081 136.685 46.4076C136.53 46.2025 136.336 46.0544 136.104 45.9633C135.876 45.8721 135.52 45.8265 135.037 45.8265H132.993ZM143.042 45.1088C144.245 45.1088 145.286 45.5668 146.166 46.4828C147.05 47.3942 147.492 48.5336 147.492 49.9008C147.492 51.309 147.048 52.4779 146.159 53.4076C145.271 54.3373 144.195 54.8021 142.933 54.8021C141.657 54.8021 140.583 54.3487 139.713 53.4418C138.847 52.5349 138.414 51.3614 138.414 49.9213C138.414 48.4493 138.915 47.2484 139.918 46.3187C140.788 45.5121 141.83 45.1088 143.042 45.1088ZM142.912 45.6078C142.083 45.6078 141.417 45.9154 140.916 46.5306C140.292 47.2963 139.979 48.4174 139.979 49.8939C139.979 51.4069 140.303 52.5713 140.95 53.3871C141.447 54.0069 142.103 54.3168 142.919 54.3168C143.789 54.3168 144.507 53.9773 145.072 53.2982C145.642 52.6192 145.927 51.5482 145.927 50.0853C145.927 48.4994 145.615 47.3168 144.99 46.5375C144.489 45.9177 143.796 45.6078 142.912 45.6078ZM157.5 54.5902H155.025L151.888 50.2562C151.655 50.2653 151.466 50.2699 151.32 50.2699C151.261 50.2699 151.197 50.2699 151.129 50.2699C151.061 50.2653 150.99 50.2608 150.917 50.2562V52.9496C150.917 53.5329 150.981 53.8952 151.108 54.0365C151.282 54.237 151.541 54.3373 151.888 54.3373H152.25V54.5902H148.278V54.3373H148.627C149.019 54.3373 149.299 54.2097 149.468 53.9545C149.563 53.8132 149.611 53.4782 149.611 52.9496V46.9613C149.611 46.378 149.548 46.0157 149.42 45.8744C149.242 45.6739 148.978 45.5736 148.627 45.5736H148.278V45.3207H151.655C152.64 45.3207 153.364 45.3936 153.829 45.5394C154.299 45.6807 154.695 45.945 155.019 46.3324C155.347 46.7152 155.511 47.1732 155.511 47.7064C155.511 48.2761 155.324 48.7705 154.95 49.1898C154.581 49.6091 154.007 49.9053 153.228 50.0785L155.142 52.7377C155.579 53.3483 155.955 53.7539 156.27 53.9545C156.584 54.155 156.994 54.2826 157.5 54.3373V54.5902ZM150.917 49.8256C151.004 49.8256 151.079 49.8278 151.143 49.8324C151.206 49.8324 151.259 49.8324 151.3 49.8324C152.184 49.8324 152.849 49.641 153.296 49.2582C153.747 48.8754 153.973 48.3877 153.973 47.7953C153.973 47.2165 153.79 46.7471 153.426 46.3871C153.066 46.0225 152.587 45.8402 151.99 45.8402C151.726 45.8402 151.368 45.8835 150.917 45.9701V49.8256ZM163.105 54.5902L159.523 46.7904V52.9838C159.523 53.5534 159.585 53.9089 159.708 54.0502C159.877 54.2416 160.143 54.3373 160.508 54.3373H160.836V54.5902H157.609V54.3373H157.938C158.329 54.3373 158.607 54.2188 158.771 53.9818C158.872 53.836 158.922 53.5033 158.922 52.9838V46.9271C158.922 46.517 158.876 46.2207 158.785 46.0385C158.721 45.9063 158.603 45.7969 158.43 45.7103C158.261 45.6192 157.988 45.5736 157.609 45.5736V45.3207H160.234L163.598 52.5736L166.906 45.3207H169.531V45.5736H169.21C168.813 45.5736 168.533 45.6921 168.369 45.9291C168.269 46.0749 168.219 46.4076 168.219 46.9271V52.9838C168.219 53.5534 168.283 53.9089 168.41 54.0502C168.579 54.2416 168.845 54.3373 169.21 54.3373H169.531V54.5902H165.594V54.3373H165.922C166.318 54.3373 166.596 54.2188 166.756 53.9818C166.856 53.836 166.906 53.5033 166.906 52.9838V46.7904L163.331 54.5902H163.105ZM176.237 51.4867H172.648L172.02 52.9496C171.865 53.3096 171.787 53.5785 171.787 53.7562C171.787 53.8975 171.853 54.0228 171.985 54.1322C172.122 54.237 172.414 54.3054 172.86 54.3373V54.5902H169.941V54.3373C170.329 54.2689 170.579 54.1801 170.693 54.0707C170.926 53.8519 171.183 53.4076 171.466 52.7377L174.727 45.1088H174.966L178.192 52.8197C178.452 53.4395 178.687 53.8428 178.896 54.0297C179.111 54.212 179.407 54.3145 179.785 54.3373V54.5902H176.128V54.3373C176.497 54.3191 176.745 54.2575 176.873 54.1527C177.005 54.0479 177.071 53.9203 177.071 53.7699C177.071 53.5694 176.98 53.2526 176.798 52.8197L176.237 51.4867ZM176.046 50.9808L174.474 47.2347L172.86 50.9808H176.046ZM186.491 45.3207L186.594 47.4945H186.334C186.284 47.1117 186.215 46.8383 186.129 46.6742C185.988 46.4099 185.799 46.2162 185.562 46.0931C185.329 45.9655 185.021 45.9017 184.639 45.9017H183.333V52.9838C183.333 53.5534 183.395 53.9089 183.518 54.0502C183.691 54.2416 183.957 54.3373 184.317 54.3373H184.639V54.5902H180.708V54.3373H181.036C181.428 54.3373 181.706 54.2188 181.87 53.9818C181.97 53.836 182.021 53.5033 182.021 52.9838V45.9017H180.906C180.473 45.9017 180.166 45.9336 179.983 45.9974C179.746 46.084 179.544 46.2504 179.375 46.4965C179.206 46.7426 179.106 47.0752 179.074 47.4945H178.814L178.924 45.3207H186.491ZM191.27 54.3373V54.5902H187.298V54.3373H187.626C188.009 54.3373 188.287 54.2256 188.46 54.0023C188.569 53.8565 188.624 53.5056 188.624 52.9496V46.9613C188.624 46.4919 188.594 46.182 188.535 46.0316C188.49 45.9177 188.396 45.8197 188.255 45.7377C188.054 45.6283 187.845 45.5736 187.626 45.5736H187.298V45.3207H191.27V45.5736H190.935C190.556 45.5736 190.281 45.6853 190.107 45.9086C189.993 46.0544 189.937 46.4053 189.937 46.9613V52.9496C189.937 53.419 189.966 53.7289 190.025 53.8793C190.071 53.9932 190.167 54.0912 190.312 54.1732C190.508 54.2826 190.716 54.3373 190.935 54.3373H191.27ZM197.777 54.6927C198.242 55.4948 198.743 56.085 199.281 56.4633C199.824 56.8415 200.439 57.058 201.127 57.1127V57.3314C200.498 57.3086 199.826 57.181 199.11 56.9486C198.395 56.7207 197.716 56.4017 197.073 55.9916C196.435 55.586 195.884 55.153 195.419 54.6927C194.763 54.4284 194.243 54.1482 193.86 53.8519C193.304 53.4099 192.871 52.8676 192.562 52.225C192.256 51.5778 192.104 50.8145 192.104 49.9349C192.104 48.5495 192.552 47.3988 193.45 46.4828C194.348 45.5668 195.435 45.1088 196.711 45.1088C197.923 45.1088 198.971 45.5691 199.855 46.4896C200.744 47.4056 201.188 48.5632 201.188 49.9623C201.188 51.097 200.872 52.0928 200.238 52.9496C199.609 53.8064 198.789 54.3874 197.777 54.6927ZM196.629 45.6351C195.799 45.6351 195.132 45.9314 194.626 46.5238C193.988 47.2666 193.669 48.4037 193.669 49.9349C193.669 51.4343 193.993 52.5896 194.64 53.4008C195.141 54.0251 195.804 54.3373 196.629 54.3373C197.486 54.3373 198.176 54.0251 198.7 53.4008C199.315 52.6625 199.623 51.5733 199.623 50.1332C199.623 49.0258 199.454 48.0938 199.117 47.3373C198.857 46.7539 198.511 46.3256 198.078 46.0521C197.65 45.7741 197.167 45.6351 196.629 45.6351ZM208.407 45.5736V45.3207H211.688V45.5736H211.34C210.975 45.5736 210.695 45.7263 210.499 46.0316C210.403 46.1729 210.355 46.501 210.355 47.016V50.7758C210.355 51.7054 210.262 52.4278 210.075 52.9427C209.893 53.4532 209.531 53.8929 208.988 54.2621C208.451 54.6267 207.717 54.809 206.787 54.809C205.775 54.809 205.007 54.6335 204.483 54.2826C203.959 53.9317 203.588 53.46 203.369 52.8676C203.223 52.462 203.15 51.7009 203.15 50.5844V46.9613C203.15 46.3916 203.071 46.0179 202.911 45.8402C202.756 45.6625 202.503 45.5736 202.152 45.5736H201.804V45.3207H205.81V45.5736H205.454C205.071 45.5736 204.798 45.6944 204.634 45.9359C204.52 46.1 204.463 46.4418 204.463 46.9613V51.0013C204.463 51.3614 204.495 51.7738 204.559 52.2386C204.627 52.7035 204.748 53.0658 204.921 53.3256C205.094 53.5853 205.342 53.7995 205.666 53.9681C205.994 54.1368 206.395 54.2211 206.869 54.2211C207.475 54.2211 208.018 54.0889 208.496 53.8246C208.975 53.5603 209.3 53.223 209.474 52.8129C209.651 52.3982 209.74 51.6986 209.74 50.7142V46.9613C209.74 46.3825 209.676 46.0202 209.549 45.8744C209.371 45.6739 209.107 45.5736 208.756 45.5736H208.407ZM214.771 45.8265V49.4906H216.809C217.337 49.4906 217.69 49.4108 217.868 49.2513C218.105 49.0417 218.237 48.6726 218.265 48.1439H218.518V51.3705H218.265C218.201 50.9193 218.137 50.6299 218.073 50.5023C217.991 50.3428 217.857 50.2175 217.67 50.1263C217.483 50.0352 217.196 49.9896 216.809 49.9896H214.771V53.0453C214.771 53.4554 214.79 53.7061 214.826 53.7972C214.863 53.8838 214.926 53.9545 215.018 54.0092C215.109 54.0593 215.282 54.0844 215.537 54.0844H217.109C217.633 54.0844 218.014 54.0479 218.251 53.975C218.488 53.9021 218.716 53.7585 218.935 53.5443C219.217 53.2618 219.507 52.8357 219.803 52.266H220.076L219.276 54.5902H212.133V54.3373H212.461C212.68 54.3373 212.887 54.2849 213.083 54.1801C213.229 54.1071 213.327 53.9978 213.377 53.8519C213.432 53.7061 213.459 53.4076 213.459 52.9564V46.934C213.459 46.3461 213.4 45.9838 213.281 45.847C213.117 45.6648 212.844 45.5736 212.461 45.5736H212.133V45.3207H219.276L219.379 47.351H219.112C219.017 46.8633 218.91 46.5284 218.791 46.3461C218.677 46.1638 218.506 46.0248 218.278 45.9291C218.096 45.8607 217.775 45.8265 217.314 45.8265H214.771Z" fill="black"/>
<defs>
<filter id="filter0_d_2095_7985" x="0.871478" y="0.0562744" width="35.3215" height="66.7616" filterUnits="userSpaceOnUse" color-interpolation-filters="sRGB">
<feFlood flood-opacity="0" result="BackgroundImageFix"/>
<feColorMatrix in="SourceAlpha" type="matrix" values="0 0 0 0 0 0 0 0 0 0 0 0 0 0 0 0 0 0 127 0" result="hardAlpha"/>
<feOffset dy="4.12852"/>
<feGaussianBlur stdDeviation="2.06426"/>
<feComposite in2="hardAlpha" operator="out"/>
<feColorMatrix type="matrix" values="0 0 0 0 0.00392157 0 0 0 0 0.0784314 0 0 0 0 0.156863 0 0 0 0.15 0"/>
<feBlend mode="normal" in2="BackgroundImageFix" result="effect1_dropShadow_2095_7985"/>
<feBlend mode="normal" in="SourceGraphic" in2="effect1_dropShadow_2095_7985" result="shape"/>
</filter>
<filter id="filter1_d_2095_7985" x="32.0062" y="0.00817871" width="35.4445" height="66.8391" filterUnits="userSpaceOnUse" color-interpolation-filters="sRGB">
<feFlood flood-opacity="0" result="BackgroundImageFix"/>
<feColorMatrix in="SourceAlpha" type="matrix" values="0 0 0 0 0 0 0 0 0 0 0 0 0 0 0 0 0 0 127 0" result="hardAlpha"/>
<feOffset dy="4.12852"/>
<feGaussianBlur stdDeviation="2.06426"/>
<feComposite in2="hardAlpha" operator="out"/>
<feColorMatrix type="matrix" values="0 0 0 0 0.00392157 0 0 0 0 0.0784314 0 0 0 0 0.156863 0 0 0 0.15 0"/>
<feBlend mode="normal" in2="BackgroundImageFix" result="effect1_dropShadow_2095_7985"/>
<feBlend mode="normal" in="SourceGraphic" in2="effect1_dropShadow_2095_7985" result="shape"/>
</filter>
</defs>
</svg>
